<svg width="32" height="32" viewBox="0 0 32 32" fill="none" xmlns="http://www.w3.org/2000/svg">
<path d="M8.80075 28.6462H22.4466C26.0403 28.6462 27.4726 26.4456 27.6419 23.7633L28.319 13.0081C28.5013 10.1956 26.2617 7.81283 23.4362 7.81283C22.6419 7.81283 21.9127 7.3571 21.5481 6.65397L20.6107 4.76595C20.0117 3.58105 18.4492 2.60449 17.1211 2.60449H14.1393C12.7982 2.60449 11.2357 3.58105 10.6367 4.76595L9.69919 6.65397C9.33461 7.3571 8.60544 7.81283 7.81117 7.81283C4.98565 7.81283 2.74607 10.1956 2.92836 13.0081L3.60544 23.7633C3.76169 26.4456 5.20701 28.6462 8.80075 28.6462Z" stroke="white" stroke-width="1.5" stroke-linecap="round" stroke-linejoin="round"/>
<path d="M13.6719 10.417H17.5781" stroke="white" stroke-width="1.5" stroke-linecap="round" stroke-linejoin="round"/>
<path d="M15.6263 23.4372C17.957 23.4372 19.8581 21.5361 19.8581 19.2054C19.8581 16.8747 17.957 14.9736 15.6263 14.9736C13.2956 14.9736 11.3945 16.8747 11.3945 19.2054C11.3945 21.5361 13.2956 23.4372 15.6263 23.4372Z" stroke="white" stroke-width="1.5" stroke-linecap="round" stroke-linejoin="round"/>
</svg>
